<?xml version="1.0" encoding="UTF-8"?>
<svg id="svg5" xmlns="http://www.w3.org/2000/svg" version="1.1" xmlns:svg="http://www.w3.org/2000/svg" viewBox="0 0 961.64 649.65">
  <!-- Generator: Adobe Illustrator 29.8.3, SVG Export Plug-In . SVG Version: 2.1.1 Build 3)  -->
  <defs>
    <style>
      .st0 {
        fill: #fff;
      }
    </style>
  </defs>
  <g id="layer1">
    <path id="path368" class="st0" d="M353.94,106.82c0,23.23,23.53,36.81,62.76,36.81,84.49,0,152.98-42.55,230.84-42.55,25.64,0,38.31,7.55,38.31,23.23,0,31.69-66.68,55.83-125.52,59.75-10.56-15.99-33.19-24.44-61.26-24.44-80.56,0-140.92,79.96-140.92,151.17,0,44.05,25.65,69.1,70.31,69.1,80.27,0,133.37-80.86,136.69-139.41-61.25,3.62-102.6,30.78-120.7,90.22-3.93,12.67-7.24,21.13-15.7,21.13-4.53,0-9.94-2.12-9.94-12.08,0-18.1,28.96-46.46,42.84-76.94,11.17-24.44,13.58-75.13,33.19-75.13,5.74,0,9.06,1.51,9.06,9.66,0,17.2-20.82,46.77-28.37,62.16,19.3-17.51,52.49-29.27,88.1-30.47,74.84-3.02,151.78-41.35,151.78-102.89-.6-38.03-28.66-60.35-75.43-60.35-63.68,0-120.4,46.17-181.65,46.17-15.4,0-23.54-5.13-23.54-14.49,0-39.53,153.9-6.94,153.9-70.91C588.7,7.85,563.05,2.12,552.8,0c3.32,3.32,6.03,7.85,6.03,12.68,0,64.87-204.88,21.72-204.88,94.14M529.25,466.51l-9.35,22.92h29.26c13.58,0,22.94-7.25,28.66-21.73l9.05-22.94h-28.66c-12.67,0-22.63,6.65-28.96,21.75M227.82,486.72c15.09,0,25.64-7.55,32.29-24.15l7.24-17.8H95.95C66.39,444.76,0,484,0,509.95c.6,19.61,17.8,42.54,34.7,54.01l27.46-43.74c-7.55-4.54-16.3-11.17-16.6-19.92,0-8.15,9.05-13.58,16.9-13.58h50.09l-64.88,159.92h46.78c6.63,0,11.16-3.62,14.48-10.86l60.65-149.06h58.23ZM961.64,487.61c-18.99,21.14-45.24,31.39-82.98,34.4-6.62-11.46-20.8-17.2-40.42-17.2-35.31,0-49.79,24.14-83.89,24.14-30.78,0-57.34-18.4-76.65-19.91l-11.78,17.49c9.66,5.74,15.1,13.89,15.1,28.37,0,24.14-22.63,64.57-46.78,64.57-9.65,0-12.67-11.77-7.24-25.04l61.25-149.67h-26.85c-14.47,0-25.03,7.56-31.68,22.94l-31.98,76.65c-19.02,45.25-47.98,66.99-64.58,66.99-9.05,0-11.16-6.65-7.54-15.39l35.3-86.9h-29.57c-9.65,0-19.61,2.72-27.76,21.72l-7.55,18.41c-18.4,44.96-44.94,62.15-60.34,62.15-8.15,0-11.77-5.13-7.55-15.68l18.42-45.27c9.34-26.25,9.05-44.05-17.2-44.05-27.77,0-53.11,24.73-67.31,40.73l41.95-102.3h-31.68c-11.17,0-19.63,3.63-26.87,21.75l-31.38,77.84c-19.32,47.97-71.2,69.7-91.13,69.7-13.27,0-19.9-6.04-19.9-18.1,0-22.94,22.92-50.4,48.56-50.4h9.36c10.56,0,17.8-5.43,22.63-16.59l8.46-19.91h-32.59c-57.63,0-110.13,52.2-108.03,108.03.61,21.11,13.59,32.29,37.12,32.29,33.8,0,70.91-17.51,103.5-50.99l-19.61,48.28h31.08c12.97,0,20.82-6.04,27.45-21.73,15.7-37.11,34.1-77.55,57.03-77.55,6.94,0,10.25,5.43,6.94,13.58l-17.51,42.55c-10.56,25.65-8.75,46.17,19.3,46.17,23.23,0,48.9-13.28,75.15-40.44-6.63,23.54-3.32,40.44,22.63,40.44s54.92-17.2,82.08-47.37c-4.53,28.96,11.47,47.08,43.75,47.08,52.49,0,106.81-48.89,106.81-102,0,0,5.43.62,10.56.62,8.44,0,20.22-3.02,27.46-6.05-12.98,15.99-21.44,38.32-21.44,61.26,0,28.37,15.71,46.47,44.97,46.47,52.82,0,86.3-50.99,90.53-89.02-34.7,2.12-68.5,23.23-78.47,57.64-2.41,8.75-5.13,15.09-11.77,15.09-5.13,0-7.84-3.32-7.84-9.36,0-13.58,19.3-31.38,27.46-49.18,9.35-20.52,10.25-53.71,24.73-53.71,5.13,0,6.94,2.12,6.94,7.85,0,12.36-15.39,34.1-18.41,41.04,14.49-10.86,38.31-17.51,59.75-20.22,47.39-6.34,74.24-20.82,79.96-61.56v-.61Z"/>
  </g>
</svg>